<?xml version="1.0" encoding="utf-8"?>
<!-- Generator: Adobe Illustrator 24.0.2, SVG Export Plug-In . SVG Version: 6.00 Build 0)  -->
<svg version="1.1" id="Layer_1" xmlns="http://www.w3.org/2000/svg" xmlns:xlink="http://www.w3.org/1999/xlink" x="0px" y="0px"
	 viewBox="0 0 12 12" style="enable-background:new 0 0 12 12;" xml:space="preserve">
<style type="text/css">
	.st0{fill:#DA6964;}
</style>
<polygon class="st0" points="10.4,3 10.4,1.7 9.2,1.7 7.9,1.7 6.7,1.7 6.7,3 5.5,3 5.5,1.7 4.2,1.7 3,1.7 1.7,1.7 1.7,3 0.5,3 
	0.5,3 0.5,4.2 0.5,5.5 0.5,5.5 0.5,5.5 1.7,5.5 1.7,6.7 3,6.7 3,7.9 4.2,7.9 4.2,9.2 5.5,9.2 5.5,10.4 5.5,10.4 6.7,10.4 6.7,10.4 
	6.7,9.2 7.9,9.2 7.9,7.9 9.2,7.9 9.2,6.7 10.4,6.7 10.4,5.5 11.7,5.5 11.7,5.5 11.7,4.2 11.7,3 "/>
</svg>
