<svg id="Layer_1" data-name="Layer 1" xmlns="http://www.w3.org/2000/svg" viewBox="0 0 1366 192.71"><defs><style>.cls-1{fill:#262138;}.cls-2{fill:#66658d;}.cls-3{fill:#908fbb;}</style></defs><title>cursosEndScreen</title><rect class="cls-1" x="80.35" y="48.18" width="80.36" height="16.06"/><rect class="cls-1" x="80.35" y="64.24" width="80.36" height="16.05"/><rect class="cls-2" x="80.35" width="80.36" height="16.06"/><rect class="cls-1" x="80.35" y="16.06" width="80.36" height="16.06"/><rect class="cls-3" x="80.35" y="32.12" width="80.36" height="16.06"/><rect class="cls-1" y="96.35" width="80.35" height="16.06"/><rect class="cls-3" y="80.29" width="80.35" height="16.06"/><rect class="cls-1" y="64.24" width="80.35" height="16.05"/><rect class="cls-2" y="48.18" width="80.35" height="16.06"/><rect class="cls-1" y="16.06" width="80.35" height="16.06"/><rect class="cls-1" y="32.12" width="80.35" height="16.06"/><rect class="cls-1" width="80.35" height="16.06"/><rect class="cls-1" x="1285.65" y="64.24" width="80.35" height="16.05"/><rect class="cls-1" x="1205.29" y="112.41" width="80.36" height="16.06"/><rect class="cls-1" x="1285.65" y="112.41" width="80.35" height="16.06"/><rect class="cls-1" x="1285.65" y="96.35" width="80.35" height="16.06"/><rect class="cls-1" x="1285.65" y="80.29" width="80.35" height="16.06"/><rect class="cls-1" x="1205.29" y="16.06" width="80.36" height="16.06"/><rect class="cls-1" x="1205.29" width="80.36" height="16.06"/><rect class="cls-1" x="1285.65" y="48.18" width="80.35" height="16.06"/><rect class="cls-1" x="1285.65" y="16.06" width="80.35" height="16.06"/><rect class="cls-1" x="1285.65" y="32.12" width="80.35" height="16.06"/><rect class="cls-1" x="1205.29" y="80.29" width="80.36" height="16.06"/><rect class="cls-1" x="1205.29" y="128.47" width="80.36" height="16.06"/><rect class="cls-1" x="1205.29" y="64.24" width="80.36" height="16.05"/><rect class="cls-2" x="1205.29" y="32.12" width="80.36" height="16.06"/><rect class="cls-3" x="1285.65" width="80.35" height="16.06"/><rect class="cls-2" x="1205.29" y="96.35" width="80.36" height="16.06"/><rect class="cls-1" x="1205.29" y="48.18" width="80.36" height="16.06"/><rect class="cls-1" x="1124.94" y="96.35" width="80.35" height="16.06"/><rect class="cls-1" x="1124.94" y="48.18" width="80.35" height="16.06"/><rect class="cls-1" x="1124.94" y="80.29" width="80.35" height="16.06"/><rect class="cls-3" x="1124.94" y="64.24" width="80.35" height="16.05"/><rect class="cls-1" x="883.88" y="80.29" width="80.36" height="16.06"/><rect class="cls-1" x="883.88" y="16.06" width="80.36" height="16.06"/><rect class="cls-1" x="1044.59" width="80.35" height="16.06"/><rect class="cls-1" x="883.88" y="48.18" width="80.36" height="16.06"/><rect class="cls-1" x="1044.59" y="16.06" width="80.35" height="16.06"/><rect class="cls-3" x="964.24" y="80.29" width="80.35" height="16.06"/><rect class="cls-1" x="1044.59" y="80.29" width="80.35" height="16.06"/><rect class="cls-2" x="803.53" y="112.41" width="80.35" height="16.06"/><rect class="cls-1" x="964.24" y="64.24" width="80.35" height="16.05"/><rect class="cls-1" x="1124.94" y="32.12" width="80.35" height="16.06"/><rect class="cls-1" x="1124.94" y="16.06" width="80.35" height="16.06"/><rect class="cls-1" x="1124.94" width="80.35" height="16.06"/><rect class="cls-1" x="1044.59" y="32.12" width="80.35" height="16.06"/><rect class="cls-1" x="964.24" y="48.18" width="80.35" height="16.06"/><rect class="cls-1" x="803.53" y="176.65" width="80.35" height="16.06"/><rect class="cls-2" x="1044.59" y="48.18" width="80.35" height="16.06"/><rect class="cls-1" x="803.53" y="144.53" width="80.35" height="16.06"/><rect class="cls-1" x="803.53" y="160.59" width="80.35" height="16.06"/><rect class="cls-1" x="883.88" width="80.36" height="16.06"/><rect class="cls-1" x="964.24" y="32.12" width="80.35" height="16.06"/><rect class="cls-1" x="1044.59" y="64.24" width="80.35" height="16.05"/><rect class="cls-3" x="964.24" y="16.06" width="80.35" height="16.06"/><rect class="cls-1" x="964.24" width="80.35" height="16.06"/><rect class="cls-2" x="883.88" y="64.24" width="80.36" height="16.05"/><rect class="cls-1" x="883.88" y="32.12" width="80.36" height="16.06"/><rect class="cls-1" x="723.18" y="16.06" width="80.35" height="16.06"/><rect class="cls-2" x="642.82" y="48.18" width="80.36" height="16.06"/><rect class="cls-1" x="723.18" y="176.65" width="80.35" height="16.06"/><rect class="cls-2" x="723.18" y="160.59" width="80.35" height="16.06"/><rect class="cls-1" x="723.18" y="128.47" width="80.35" height="16.06"/><rect class="cls-1" x="642.82" width="80.36" height="16.06"/><rect class="cls-1" x="642.82" y="80.29" width="80.36" height="16.06"/><rect class="cls-1" x="642.82" y="16.06" width="80.36" height="16.06"/><rect class="cls-1" x="723.18" y="48.18" width="80.35" height="16.06"/><rect class="cls-1" x="803.53" y="64.24" width="80.35" height="16.05"/><rect class="cls-1" x="803.53" y="96.35" width="80.35" height="16.06"/><rect class="cls-1" x="803.53" y="80.29" width="80.35" height="16.06"/><rect class="cls-3" x="562.47" y="16.06" width="80.35" height="16.06"/><rect class="cls-1" x="803.53" y="48.18" width="80.35" height="16.06"/><rect class="cls-1" x="723.18" y="112.41" width="80.35" height="16.06"/><rect class="cls-2" x="803.53" y="32.12" width="80.35" height="16.06"/><rect class="cls-1" x="803.53" y="16.06" width="80.35" height="16.06"/><rect class="cls-3" x="723.18" y="32.12" width="80.35" height="16.06"/><rect class="cls-1" x="642.82" y="32.12" width="80.36" height="16.06"/><rect class="cls-1" x="723.18" width="80.35" height="16.06"/><rect class="cls-2" x="723.18" y="80.29" width="80.35" height="16.06"/><rect class="cls-1" x="723.18" y="96.35" width="80.35" height="16.06"/><rect class="cls-1" x="723.18" y="64.24" width="80.35" height="16.05"/><rect class="cls-1" x="562.47" width="80.35" height="16.06"/><rect class="cls-1" x="803.53" width="80.35" height="16.06"/><rect class="cls-1" x="642.82" y="64.24" width="80.36" height="16.05"/><rect class="cls-1" x="642.82" y="96.35" width="80.36" height="16.06"/><rect class="cls-1" x="723.18" y="144.53" width="80.35" height="16.06"/><rect class="cls-1" x="562.47" y="80.29" width="80.35" height="16.06"/><rect class="cls-1" x="562.47" y="32.12" width="80.35" height="16.06"/><rect class="cls-1" x="241.06" width="80.35" height="16.06"/><rect class="cls-2" x="241.06" y="32.12" width="80.35" height="16.06"/><rect class="cls-1" x="401.76" width="80.36" height="16.06"/><rect class="cls-2" x="321.41" y="64.24" width="80.35" height="16.05"/><rect class="cls-1" x="241.06" y="80.29" width="80.35" height="16.06"/><rect class="cls-1" x="482.12" width="80.35" height="16.06"/><rect class="cls-1" x="401.76" y="32.12" width="80.36" height="16.06"/><rect class="cls-1" x="321.41" y="32.12" width="80.35" height="16.06"/><rect class="cls-1" x="241.06" y="16.06" width="80.35" height="16.06"/><rect class="cls-3" x="321.41" y="16.06" width="80.35" height="16.06"/><rect class="cls-1" x="321.41" y="80.29" width="80.35" height="16.06"/><rect class="cls-3" x="241.06" y="64.24" width="80.35" height="16.05"/><rect class="cls-1" x="401.76" y="16.06" width="80.36" height="16.06"/><rect class="cls-1" x="321.41" y="48.18" width="80.35" height="16.06"/><rect class="cls-1" x="321.41" width="80.35" height="16.06"/><rect class="cls-1" x="241.06" y="48.18" width="80.35" height="16.06"/><rect class="cls-1" x="160.71" y="16.06" width="80.35" height="16.06"/><rect class="cls-1" x="160.71" y="32.12" width="80.35" height="16.06"/><rect class="cls-1" x="160.71" width="80.35" height="16.06"/><rect class="cls-1" x="160.71" y="48.18" width="80.35" height="16.06"/></svg>