<?xml version="1.0" encoding="utf-8"?>
<!-- Generator: Adobe Illustrator 24.0.2, SVG Export Plug-In . SVG Version: 6.00 Build 0)  -->
<svg version="1.1" id="Layer_1" xmlns="http://www.w3.org/2000/svg" xmlns:xlink="http://www.w3.org/1999/xlink" x="0px" y="0px"
	 viewBox="0 0 800 800" style="enable-background:new 0 0 800 800;" xml:space="preserve">
<style type="text/css">
	.st0{fill:#14343F;}
	.st1{fill:#2E4A58;}
	.st2{fill:#E9B962;}
	.st3{fill:#CFA2CD;}
	.st4{fill:#DA6964;}
	.st5{fill:#54B4B4;}
</style>
<title>logo vector</title>
<g id="Layer_2">
	<ellipse class="st0" cx="492.1" cy="301.1" rx="134.2" ry="127.1"/>
</g>
<path class="st1" d="M451.3,122.2c-139.2,0-252.1,112.9-252.1,252.1s112.9,252.1,252.1,252.1s252.1-112.9,252.1-252.1
	S590.4,122.2,451.3,122.2z M417,221.6c0-19.3,15.6-35,35-35s35,15.6,35,35s-15.6,35-35,35C432.6,256.5,417,240.9,417,221.6z
	 M459.7,408.8c-18,0-32.4-14.5-32.4-32.4c0-18,14.5-32.4,32.4-32.4c18,0,32.4,14.5,32.4,32.4C492.1,394.3,477.6,408.8,459.7,408.8z
	 M585.2,352.3c-17.5,0-31.8-14.1-31.8-31.8c0-17.5,14.1-31.8,31.8-31.8c17.5,0,31.8,14.1,31.8,31.8
	C616.8,338,602.7,352.3,585.2,352.3z"/>
<g id="piezas">
	<rect y="620.6" class="st2" width="800" height="124.4"/>
	<rect x="400" y="534.8" class="st3" width="400" height="85.7"/>
	<rect x="205" y="429" class="st4" width="195" height="191.6"/>
	<rect x="16.8" y="320.6" class="st5" width="188.2" height="107.6"/>
	<rect x="205" y="231.5" class="st5" width="152.9" height="89.1"/>
</g>
</svg>
