<?xml version="1.0" encoding="utf-8"?>
<!-- Generator: Adobe Illustrator 24.0.2, SVG Export Plug-In . SVG Version: 6.00 Build 0)  -->
<svg version="1.1" id="Layer_1" xmlns="http://www.w3.org/2000/svg" xmlns:xlink="http://www.w3.org/1999/xlink" x="0px" y="0px"
	 viewBox="0 0 800 800" style="enable-background:new 0 0 800 800;" xml:space="preserve">
<style type="text/css">
	.st0{fill:#2E4A58;}
	.st1{fill:#E9B962;}
	.st2{fill:#CFA2CD;}
	.st3{fill:#DA6964;}
	.st4{fill:#54B4B4;}
</style>
<title>logo vector</title>
<path class="st0" d="M430.5,168.5c-82.8,0-150,67.2-150,150s67.2,150,150,150s150-67.2,150-150S513.3,168.5,430.5,168.5z
	 M410.1,227.6c0-11.5,9.3-20.8,20.8-20.8c11.5,0,20.8,9.3,20.8,20.8c0,11.5-9.3,20.8-20.8,20.8C419.4,248.4,410.1,239.1,410.1,227.6
	z M435.5,339c-10.7,0-19.3-8.6-19.3-19.3s8.6-19.3,19.3-19.3s19.3,8.6,19.3,19.3S446.2,339,435.5,339z M510.2,305.4
	c-10.4,0-18.9-8.4-18.9-18.9c0-10.4,8.4-18.9,18.9-18.9c10.4,0,18.9,8.4,18.9,18.9C529,296.9,520.6,305.4,510.2,305.4z"/>
<g id="piezas">
	<rect x="162" y="465" class="st1" width="476" height="74"/>
	<rect x="400" y="414" class="st2" width="238" height="51"/>
	<rect x="284" y="351" class="st3" width="116" height="114"/>
	<rect x="172" y="286.5" class="st4" width="112" height="64"/>
	<rect x="284" y="233.5" class="st4" width="91" height="53"/>
</g>
</svg>
