<?xml version="1.0" encoding="utf-8"?>
<!-- Generator: Adobe Illustrator 24.0.2, SVG Export Plug-In . SVG Version: 6.00 Build 0)  -->
<svg version="1.1" id="Capa_1" xmlns="http://www.w3.org/2000/svg" xmlns:xlink="http://www.w3.org/1999/xlink" x="0px" y="0px"
	 viewBox="0 0 124 124" style="enable-background:new 0 0 124 124;" xml:space="preserve">
<style type="text/css">
	.st0{display:none;fill:#54B4B4;}
	.st1{display:none;fill:#DA6964;}
	.st2{display:none;fill:#E9B962;}
	.st3{fill:#DA6964;}
</style>
<g>
	<path class="st0" d="M112,6H12C5.4,6,0,11.4,0,18s5.4,12,12,12h100c6.6,0,12-5.4,12-12S118.6,6,112,6z"/>
	<path class="st1" d="M112,50H12C5.4,50,0,55.4,0,62s5.4,12,12,12h100c6.6,0,12-5.4,12-12S118.6,50,112,50z"/>
	<path class="st2" d="M112,94H12c-6.6,0-12,5.4-12,12s5.4,12,12,12h100c6.6,0,12-5.4,12-12S118.6,94,112,94z"/>
	<path class="st3" d="M91.6,18.2L20.9,88.9c-4.7,4.7-4.7,12.3,0,17s12.3,4.7,17,0l70.7-70.7c4.7-4.7,4.7-12.3,0-17
		S96.3,13.5,91.6,18.2z"/>
	<path class="st3" d="M105.8,88.9L35.1,18.2c-4.7-4.7-12.3-4.7-17,0s-4.7,12.3,0,17l70.7,70.7c4.7,4.7,12.3,4.7,17,0
		C110.5,101.2,110.5,93.5,105.8,88.9z"/>
</g>
</svg>
